# xmcd
# 
# Track frame offsets:
#     187
#     35782
#     61827
#     91139
#     127007
#     151307
# 
# Disc length: 2471
# 
# Revision: 3
# Processed by: cddbd v1.5.2PL0 Copyright (c) Steve Scherf et al.
# Submitted via: BonkEnc v1.0.15
# 
DISCID=4809a506
DTITLE=John Coltrane - Coltrane Plays the Blues
DYEAR=1960
DGENRE=Jazz
TTITLE0=Blues to Elvin
TTITLE1=Blues to Bechet
TTITLE2=Blues to You
TTITLE3=Mr. Day
TTITLE4=Mr. Syms
TTITLE5=Mr. Knight
EXTD=YEAR: 1960
EXTT0=
EXTT1=
EXTT2=
EXTT3=
EXTT4=
EXTT5=
PLAYORDER=
